<?xml version="1.0" encoding="UTF-8" standalone="no"?> <!-- Created with Vectornator for iOS (http://vectornator.io/) --><!DOCTYPE svg PUBLIC "-//W3C//DTD SVG 1.1//EN" "http://www.w3.org/Graphics/SVG/1.1/DTD/svg11.dtd">
<svg height="100%" style="fill-rule:nonzero;clip-rule:evenodd;stroke-linecap:round;stroke-linejoin:round;" xmlns:xlink="http://www.w3.org/1999/xlink" xmlns="http://www.w3.org/2000/svg" xml:space="preserve" width="100%" xmlns:vectornator="http://vectornator.io" version="1.1" viewBox="0 0 1536 396">
<metadata>
<vectornator:setting key="SnapToEdges" value="1"/>
<vectornator:setting key="SnapToGrid" value="0"/>
<vectornator:setting key="RulersVisible" value="1"/>
<vectornator:setting key="DynamicGuides" value="0"/>
<vectornator:setting key="TimeLapseWatermarkDisabled" value="0"/>
<vectornator:setting key="DisplayWhiteBackground" value="0"/>
<vectornator:setting key="CMYKEnabledKey" value="0"/>
<vectornator:setting key="Units" value="Pixels"/>
<vectornator:setting key="SnapToPoints" value="1"/>
<vectornator:setting key="PencilOnly" value="1"/>
<vectornator:setting key="GuidesVisible" value="1"/>
<vectornator:setting key="SnapToGuides" value="1"/>
<vectornator:setting key="OutlineMode" value="0"/>
<vectornator:setting key="doHistoryDisabled" value="0"/>
<vectornator:setting key="IsolateActiveLayer" value="0"/>
<vectornator:setting key="DimensionsVisible" value="1"/>
</metadata>
<defs/>
<g id="Layer 1" vectornator:layerName="Layer 1">
<g opacity="1">
<path stroke="#000000" stroke-width="12" d="M427.989+208.265L699.542+150.106L699.1+259.347L428.412+333.402L427.989+208.265Z" fill="#ffffff" stroke-linecap="round" opacity="1" stroke-linejoin="round"/>
<path stroke="#000000" stroke-width="12" d="M428.835+208.177L551.969+117.264C551.969+117.264+683.582+118.396+699.504+150.682C682.919+154.441+428.835+208.177+428.835+208.177Z" fill="#ffffff" stroke-linecap="round" opacity="1" stroke-linejoin="round"/>
<path stroke="#000000" stroke-width="12" d="M574.727+115.869C574.727+103.092+585.084+92.7346+597.861+92.7346C610.637+92.7346+620.995+103.092+620.995+115.869C620.995+128.645+610.637+139.003+597.861+139.003C585.084+139.003+574.727+128.645+574.727+115.869Z" fill="#ffffff" stroke-linecap="round" opacity="1" stroke-linejoin="round"/>
<path stroke="#000000" stroke-width="12" d="M429.767+295.277C429.767+295.277+455.977+279.969+479.188+276.926C502.4+273.883+497.222+289.69+522.614+283.104C548.006+276.517+549.323+258.347+580.757+250.58C612.19+242.812+619.14+258.166+648.348+252.034C677.556+245.901+697.588+226.051+697.588+226.051" fill="none" stroke-linecap="round" opacity="1" stroke-linejoin="round"/>
<path stroke="#000000" stroke-width="12" d="M429.179+236.802C429.179+236.802+458.876+225.165+501.746+217.518C544.615+209.871+553.219+213.559+570.58+211.427C587.941+209.295+594.739+198.377+605.557+196.809C616.375+195.241+619.668+215.78+632.211+214.369C644.754+212.958+648.856+192.253+656.966+191.616C665.077+190.978+665.518+214.27+672.551+212.495C681.053+210.349+679.006+190.937+685.932+189.994C692.858+189.051+696.592+188.603+696.592+188.603" fill="none" stroke-linecap="round" opacity="1" stroke-linejoin="round"/>
<path stroke="#000000" stroke-width="12" d="M596.401+100.745C596.401+100.745+592.691+77.4138+606.163+70.1598" fill="none" stroke-linecap="round" opacity="1" stroke-linejoin="round"/>
<path stroke="#000000" stroke-width="12" d="M582.989+57.6406L568.608+71.09L583.299+82.8257" fill="none" stroke-linecap="round" opacity="1" stroke-linejoin="round"/>
<path stroke="#000000" stroke-width="12" d="M618.978+57.6406L633.669+71.228L619.113+82.8257" fill="none" stroke-linecap="round" opacity="1" stroke-linejoin="round"/>
<g opacity="1">
<path d="M820.641+159.203L820.641+124.763L850.776+159.203L868.836+159.203L835.236+120.878L866.841+83.6026L849.411+83.6026L820.641+118.463L820.641+83.6026L806.361+83.6026L806.361+159.203L820.641+159.203Z" opacity="1" fill="#000000"/>
<path d="M894.361+145.868L894.361+126.443L923.131+126.443L923.131+113.108L894.361+113.108L894.361+96.9376L929.431+96.9376L929.431+83.6026L880.081+83.6026L880.081+159.203L929.431+159.203L929.431+145.868L894.361+145.868Z" opacity="1" fill="#000000"/>
<path d="M960.206+159.203L960.206+124.763L990.341+159.203L1008.4+159.203L974.801+120.878L1006.41+83.6026L988.976+83.6026L960.206+118.463L960.206+83.6026L945.926+83.6026L945.926+159.203L960.206+159.203Z" opacity="1" fill="#000000"/>
</g>
<g opacity="1">
<path d="M774.869+269.614L774.869+207.349L798.704+207.349L798.704+194.014L736.754+194.014L736.754+207.349L760.589+207.349L760.589+269.614L774.869+269.614Z" opacity="1" fill="#000000"/>
<path d="M821.384+256.279L821.384+236.854L850.154+236.854L850.154+223.519L821.384+223.519L821.384+207.349L856.454+207.349L856.454+194.014L807.104+194.014L807.104+269.614L856.454+269.614L856.454+256.279L821.384+256.279Z" opacity="1" fill="#000000"/>
<path d="M901.499+271.189C918.824+271.189+931.004+261.949+935.834+247.249L921.449+243.259C918.614+252.394+911.999+257.749+901.499+257.749C887.114+257.749+879.869+247.564+879.869+231.814C879.869+216.064+887.114+205.879+901.499+205.879C911.999+205.879+918.614+211.234+921.449+220.369L935.834+216.379C931.004+201.679+918.824+192.439+901.499+192.439C878.819+192.439+864.854+208.294+864.854+231.814C864.854+255.334+878.819+271.189+901.499+271.189Z" opacity="1" fill="#000000"/>
<path d="M961.664+269.614L961.664+238.429L995.474+238.429L995.474+269.614L1009.75+269.614L1009.75+194.014L995.474+194.014L995.474+225.094L961.664+225.094L961.664+194.014L947.384+194.014L947.384+269.614L961.664+269.614Z" opacity="1" fill="#000000"/>
</g>
<g opacity="1">
<path d="M697.547+327.794C691.322+327.794+687.647+323.569+687.447+316.244L709.847+316.244C709.847+306.844+705.297+301.394+697.547+301.394C689.847+301.394+685.197+306.794+685.197+315.644C685.197+324.444+689.897+329.894+697.547+329.894C702.797+329.894+706.997+327.294+709.197+322.694L707.447+321.694C705.447+325.644+701.997+327.794+697.547+327.794ZM697.547+303.494C703.447+303.494+706.947+307.269+707.522+314.144L687.497+314.144C687.947+307.369+691.572+303.494+697.547+303.494Z" opacity="1" fill="#000000"/>
<path d="M714.997+329.144L724.597+317.044L734.147+329.144L736.797+329.144L725.797+315.494L736.547+302.144L733.947+302.144L724.597+313.944L715.197+302.144L712.597+302.144L723.347+315.494L712.347+329.144L714.997+329.144Z" opacity="1" fill="#000000"/>
<path d="M752.747+301.394C747.972+301.394+744.572+303.794+742.747+307.669L742.747+302.144L740.797+302.144L740.797+341.144L742.897+341.144L742.897+323.844C744.722+327.544+747.947+329.894+752.347+329.894C759.997+329.894+764.097+323.694+764.097+315.594C764.097+307.644+759.997+301.394+752.747+301.394ZM752.347+327.794C745.997+327.794+742.747+322.544+742.747+315.594C742.747+308.544+746.047+303.494+752.347+303.494C758.797+303.494+761.847+308.694+761.847+315.594C761.847+322.544+758.597+327.794+752.347+327.794Z" opacity="1" fill="#000000"/>
<path d="M780.447+327.794C774.222+327.794+770.547+323.569+770.347+316.244L792.747+316.244C792.747+306.844+788.197+301.394+780.447+301.394C772.747+301.394+768.097+306.794+768.097+315.644C768.097+324.444+772.797+329.894+780.447+329.894C785.697+329.894+789.897+327.294+792.097+322.694L790.347+321.694C788.347+325.644+784.897+327.794+780.447+327.794ZM780.447+303.494C786.347+303.494+789.847+307.269+790.422+314.144L770.397+314.144C770.847+307.369+774.472+303.494+780.447+303.494Z" opacity="1" fill="#000000"/>
<path d="M801.897+304.144C801.322+304.694+800.697+305.469+800.197+306.369L800.197+302.144L798.247+302.144L798.247+329.144L800.347+329.144L800.347+315.844C800.347+312.544+800.347+308.394+803.197+305.744C805.347+303.744+807.997+303.644+810.247+304.144L810.247+302.144C807.897+301.394+804.097+301.994+801.897+304.144Z" opacity="1" fill="#000000"/>
<path d="M817.597+296.344L817.597+293.144L815.497+293.144L815.497+296.344L817.597+296.344ZM817.597+329.144L817.597+302.144L815.497+302.144L815.497+329.144L817.597+329.144Z" opacity="1" fill="#000000"/>
<path d="M835.947+327.794C829.722+327.794+826.047+323.569+825.847+316.244L848.247+316.244C848.247+306.844+843.697+301.394+835.947+301.394C828.247+301.394+823.597+306.794+823.597+315.644C823.597+324.444+828.297+329.894+835.947+329.894C841.197+329.894+845.397+327.294+847.597+322.694L845.847+321.694C843.847+325.644+840.397+327.794+835.947+327.794ZM835.947+303.494C841.847+303.494+845.347+307.269+845.922+314.144L825.897+314.144C826.347+307.369+829.972+303.494+835.947+303.494Z" opacity="1" fill="#000000"/>
<path d="M864.947+301.544C861.147+301.544+857.697+303.019+855.697+306.519L855.697+302.144L853.747+302.144L853.747+329.144L855.847+329.144L855.847+314.394C855.847+308.594+858.347+303.594+864.947+303.594C870.547+303.594+873.797+307.144+873.797+314.844L873.797+329.144L875.897+329.144L875.897+314.444C875.897+306.444+871.797+301.544+864.947+301.544Z" opacity="1" fill="#000000"/>
<path d="M893.247+329.894C898.147+329.894+901.847+327.644+904.097+323.294L902.047+322.394C900.397+325.944+897.197+327.794+893.247+327.794C886.597+327.794+883.247+322.994+883.147+315.644C883.247+308.444+886.447+303.494+893.247+303.494C897.297+303.494+900.597+305.494+902.097+308.944L904.097+308.094C902.447+303.944+898.247+301.394+893.247+301.394C885.247+301.394+881.047+306.994+880.897+315.644C881.047+324.094+885.197+329.894+893.247+329.894Z" opacity="1" fill="#000000"/>
<path d="M920.197+327.794C913.972+327.794+910.297+323.569+910.097+316.244L932.497+316.244C932.497+306.844+927.947+301.394+920.197+301.394C912.497+301.394+907.847+306.794+907.847+315.644C907.847+324.444+912.547+329.894+920.197+329.894C925.447+329.894+929.647+327.294+931.847+322.694L930.097+321.694C928.097+325.644+924.647+327.794+920.197+327.794ZM920.197+303.494C926.097+303.494+929.597+307.269+930.172+314.144L910.147+314.144C910.597+307.369+914.222+303.494+920.197+303.494Z" opacity="1" fill="#000000"/>
<path d="M951.747+296.344L951.747+293.144L949.647+293.144L949.647+296.344L951.747+296.344ZM945.647+341.144C949.997+341.144+951.747+339.244+951.747+334.644L951.747+302.144L949.647+302.144L949.647+334.894C949.647+337.994+947.797+338.994+945.697+338.994L943.997+338.994L943.997+341.144L945.647+341.144Z" opacity="1" fill="#000000"/>
<path d="M970.097+329.894C978.047+329.894+982.447+324.144+982.447+315.594C982.447+307.244+978.147+301.394+970.097+301.394C962.247+301.394+957.747+307.094+957.747+315.594C957.747+323.994+962.097+329.894+970.097+329.894ZM970.097+327.794C963.447+327.794+959.997+322.944+959.997+315.594C959.997+308.494+963.247+303.494+970.097+303.494C976.847+303.494+980.197+308.244+980.197+315.594C980.197+322.844+976.897+327.794+970.097+327.794Z" opacity="1" fill="#000000"/>
<path d="M987.747+302.144L985.447+302.144L996.447+329.169L991.997+341.144L994.347+341.144L1008.5+302.144L1006.25+302.144L997.497+326.269L987.747+302.144Z" opacity="1" fill="#000000"/>
</g>
</g>
</g>
</svg>
